<?xml version="1.0" standalone="no"?>
<!DOCTYPE svg PUBLIC "-//W3C//DTD SVG 20010904//EN"
 "http://www.w3.org/TR/2001/REC-SVG-20010904/DTD/svg10.dtd">
<svg version="1.0" xmlns="http://www.w3.org/2000/svg"
 width="469.000000pt" height="469.000000pt" viewBox="0 0 469.000000 469.000000"
 preserveAspectRatio="xMidYMid meet">
<metadata>
Created by potrace 1.14, written by Peter Selinger 2001-2017
</metadata>
<g transform="translate(0.000000,469.000000) scale(0.100000,-0.100000)"
fill="#000000" stroke="none">
<path d="M2185 4415 c-22 -9 -57 -17 -77 -20 -97 -11 -205 -116 -278 -270 -34
-73 -105 -281 -115 -336 -3 -18 -8 -35 -10 -39 -2 -4 -7 -20 -10 -36 -3 -16
-12 -56 -21 -89 -25 -100 -35 -139 -38 -158 -1 -10 -8 -22 -15 -26 -10 -6 -9
-10 3 -14 8 -3 17 -3 19 1 2 4 1 0 -1 -8 -3 -8 -5 -25 -5 -37 1 -13 -4 -23
-11 -23 -6 0 -4 -5 4 -10 11 -7 11 -10 2 -10 -7 0 -12 -8 -11 -17 1 -10 0 -20
-1 -23 -1 -3 -3 -19 -5 -35 -2 -17 -6 -46 -10 -65 -3 -19 -8 -47 -9 -62 -3
-36 -2 -36 -66 -43 -183 -20 -211 -28 -242 -62 -24 -26 -78 -138 -78 -162 0
-11 -18 -41 -40 -66 -22 -25 -40 -53 -40 -61 0 -8 0 -16 0 -19 0 -11 -31 -80
-39 -85 -4 -3 -21 -23 -37 -45 -16 -23 -48 -58 -70 -78 -23 -21 -50 -54 -59
-75 -44 -95 -57 -119 -82 -148 -16 -17 -43 -39 -61 -48 -39 -20 -67 -63 -76
-114 -3 -21 -19 -53 -36 -72 -17 -19 -50 -64 -73 -100 -23 -36 -48 -65 -56
-65 -19 0 -30 -35 -20 -63 5 -13 9 -53 9 -90 0 -87 69 -361 114 -457 19 -38
41 -92 51 -120 10 -27 24 -57 31 -66 18 -20 65 -133 74 -179 5 -19 22 -89 39
-154 17 -65 31 -121 31 -123 0 -2 5 -1 11 3 6 3 28 7 48 9 20 1 46 5 59 9 18
6 30 -1 67 -38 24 -25 79 -66 122 -92 43 -25 75 -42 71 -38 -4 4 -3 13 3 21 6
7 8 13 3 13 -5 0 -2 5 6 10 12 8 13 12 2 19 -17 10 -15 23 4 34 19 11 33 -1
15 -12 -10 -6 -10 -10 -2 -12 9 -3 9 -12 2 -32 -6 -16 -11 -51 -11 -78 0 -28
-6 -62 -14 -77 -7 -15 -13 -49 -14 -75 0 -26 -6 -55 -13 -63 -7 -9 -14 -30
-15 -47 -1 -18 -7 -59 -13 -92 -6 -33 -11 -70 -11 -82 l0 -23 934 0 934 0 11
44 c15 59 15 58 -13 99 -23 34 -24 40 -15 94 9 49 8 64 -7 98 -48 108 -9 108
126 0 113 -90 183 -136 191 -123 4 7 6 15 4 19 -5 7 -17 269 -13 269 2 0 27
-9 56 -20 29 -11 59 -20 66 -20 8 0 33 37 55 83 22 45 68 132 102 192 34 61
75 133 90 160 15 28 42 95 60 150 74 234 98 298 123 323 42 45 58 98 61 205 2
54 6 101 9 104 3 4 0 13 -8 22 -7 9 -26 48 -41 86 -15 39 -30 75 -34 80 -4 6
-18 39 -31 75 -21 60 -52 117 -73 131 -4 3 -14 26 -22 50 -21 69 -65 171 -86
201 -10 14 -19 31 -19 37 0 6 -3 11 -8 11 -4 0 -18 18 -32 41 -14 22 -32 44
-40 49 -28 15 -112 158 -105 179 9 28 -16 79 -64 131 -23 24 -42 51 -42 60 -1
8 -2 31 -4 50 -1 19 -3 45 -3 58 -4 52 -37 63 -257 88 -40 4 -187 35 -194 40
-4 4 41 68 51 72 4 2 8 10 8 17 0 7 7 16 16 19 9 4 14 13 10 21 -3 8 -1 15 3
15 11 0 2 64 -9 68 -5 2 -7 9 -4 16 3 7 -8 35 -23 62 -72 126 -144 290 -203
464 -87 257 -120 333 -178 410 -104 137 -285 223 -387 185z m612 -1007 c-8 -5
-7 -10 1 -20 8 -10 8 -18 1 -25 -7 -7 -4 -14 8 -24 16 -13 17 -12 5 3 -8 10
-9 18 -3 22 6 4 8 13 4 21 -3 8 -3 15 0 15 7 0 87 -81 88 -89 0 -3 2 -14 4
-24 2 -13 -1 -17 -11 -13 -9 3 -12 1 -9 -4 9 -15 -8 -12 -33 6 -12 8 -22 11
-22 6 0 -4 16 -16 35 -25 19 -9 35 -22 35 -27 0 -6 5 -8 10 -5 6 3 14 4 20 0
15 -9 -8 -48 -44 -73 -43 -30 -55 -28 -25 4 20 22 15 20 -31 -10 -64 -42 -70
-43 -71 -13 -4 83 -3 107 6 152 6 28 10 67 10 88 -1 20 2 37 7 37 4 0 8 5 8
11 0 5 -4 7 -10 4 -12 -7 -12 -3 -3 20 5 15 8 14 19 -6 9 -17 9 -26 1 -31z
m44 10 c18 -20 23 -28 16 -28 -2 0 -14 11 -27 25 -13 14 -20 25 -15 25 4 0 16
-10 26 -22z m99 -168 c0 -5 -4 -10 -10 -10 -5 0 -10 5 -10 10 0 6 5 10 10 10
6 0 10 -4 10 -10z m-35 -139 c-3 -12 -10 -19 -15 -16 -5 3 -10 0 -12 -6 -3
-10 -38 -2 -38 10 0 6 62 38 68 35 2 -2 1 -12 -3 -23z m350 -1016 c17 -16 39
-51 48 -76 10 -25 37 -76 62 -112 24 -36 49 -85 56 -109 17 -64 46 -116 69
-123 11 -3 20 -14 21 -23 7 -104 5 -118 -17 -168 -13 -29 -34 -60 -48 -69 -29
-19 -81 -133 -89 -195 -14 -107 -20 -140 -26 -140 -4 0 -25 53 -46 118 -21 64
-42 122 -46 127 -4 6 -8 98 -8 205 0 107 -3 213 -5 235 -3 22 -8 74 -11 115
-9 105 -14 150 -25 190 -8 34 -14 90 -11 120 1 8 11 -3 23 -25 12 -22 35 -53
53 -70z m-1995 16 c0 -6 -6 -38 -14 -73 -8 -35 -17 -81 -21 -103 -3 -23 -7
-50 -9 -60 -5 -29 -15 -129 -21 -210 -9 -117 -15 -174 -36 -315 -11 -74 -23
-157 -26 -185 -3 -27 -7 -52 -9 -54 -12 -14 -36 34 -54 109 -11 47 -25 97 -31
111 -6 14 -12 52 -14 84 -3 46 -8 62 -26 75 -16 13 -23 30 -25 64 -2 25 -8 63
-13 85 -7 32 -5 45 10 67 13 20 15 33 8 46 -10 19 -5 22 38 18 13 -1 30 5 38
13 15 15 88 144 92 162 7 37 71 165 83 168 26 8 30 7 30 -2z"/>
<path d="M2790 3316 c0 -2 7 -9 15 -16 13 -11 14 -10 9 4 -5 14 -24 23 -24 12z"/>
<path d="M1605 3375 c-10 -25 -15 -48 -13 -51 3 -3 13 16 22 42 21 62 13 69
-9 9z"/>
<path d="M1580 3290 c0 -11 2 -20 4 -20 2 0 6 9 9 20 3 11 1 20 -4 20 -5 0 -9
-9 -9 -20z"/>
</g>
</svg>
